<?xml version="1.0" encoding="UTF-8"?>
<svg id="logosandtypes_com" data-name="logosandtypes com" xmlns="http://www.w3.org/2000/svg" viewBox="0 0 150 150">
  <defs>
    <style>
      .cls-1 {
        fill: none;
      }

      .cls-2 {
        fill: #009959;
      }
    </style>
  </defs>
  <path class="cls-1" d="M0,0H150V150H0V0Z"/>
  <path class="cls-2" d="M121.27,75.14c0-5.46-3.19-10.62-8.84-15.22,31.38-27.87-26.6-50.54-77.85-49.81V140.15c51.2,.73,109.24-21.91,77.85-49.81,5.65-4.58,8.84-9.74,8.84-15.2ZM42.93,18.56c16.67,.62,35.43,3.58,49.86,9.37,8.36,3.45,19.59,9.21,20.16,16.76,.21,3.49-4.27,8.02-7.84,10.34-14.21-7.92-36.56-13.35-62.18-14.32V18.56h0Zm0,52.27v-21.82c18.21,.76,37.77,3.83,53.44,10.9-15.66,7.07-35.24,10.15-53.44,10.91Zm24.01,11.05c11.38,1.98,20.4,4.43,29.43,8.47-15.66,7.08-35.23,10.15-53.44,10.9v-21.8c8.29,.33,16.33,1.14,24.01,2.44Zm41.79,16.24c2.79,2.63,4.21,5.14,4.21,7.45-.55,7.54-11.81,13.32-20.16,16.76-14.43,5.8-33.18,8.75-49.86,9.37v-22.14c25.62-.97,47.98-6.41,62.18-14.32,1.37,.95,2.59,1.92,3.63,2.89Zm0-15.54c-1.04,.98-2.26,1.94-3.63,2.89-7.66-4.27-17.69-7.82-29.33-10.34,11.64-2.52,21.67-6.07,29.33-10.34,7.24,5.11,11.34,10.82,3.63,17.79Z"/>
</svg>