<svg width="122" height="35" viewBox="0 0 122 35" fill="none" xmlns="http://www.w3.org/2000/svg">
<path d="M12.2032 27.411C6.93932 27.411 2.86328 23.1434 2.86328 17.5862V0H5.82132V10.9972C7.33527 9.07448 9.68773 7.83172 12.2265 7.83172C17.374 7.83172 21.4966 12.0055 21.4966 17.5862C21.4966 23.2138 17.3041 27.411 12.2032 27.411ZM12.2032 10.669C8.77935 10.669 5.93778 13.7407 5.93778 17.5862C5.93778 21.4786 8.82594 24.5972 12.2032 24.5972C15.6271 24.5972 18.4454 21.549 18.4454 17.5862C18.4221 13.7172 15.6271 10.669 12.2032 10.669Z" fill="#3DBB82"/>
<path d="M41.9926 21.1741C40.5485 25.1603 37.4508 27.4113 33.1651 27.4113C27.8313 27.4113 23.6621 23.1203 23.6621 17.6569C23.6621 12.2638 27.8313 7.83203 33.002 7.83203C37.0315 7.83203 40.9678 10.6693 42.0392 15.5231L27.7847 21.5727C28.9726 23.4486 31.0223 24.5038 33.1418 24.5038C35.7738 24.5038 37.6138 23.3548 38.8017 21.1741H41.9926ZM26.8298 18.8996L38.2893 14.0458C37.1247 12.0058 35.075 10.7396 33.002 10.7396C30.044 10.7396 26.7366 13.3424 26.7366 17.6334C26.7133 18.1024 26.7599 18.501 26.8298 18.8996Z" fill="#3DBB82"/>
<path d="M52.4737 26.9889C48.1415 27.5048 45.1602 24.9255 45.1602 20.1655V4.31445H48.1881V8.30066H52.4039V11.2317H48.1881V20.1655C48.1881 23.4717 50.1679 24.2924 52.4737 24.1517V26.9889Z" fill="#3DBB82"/>
<path d="M61.7452 26.9889C57.413 27.5048 54.4316 24.9255 54.4316 20.1655V4.31445H57.4595V8.30066H61.6753V11.2317H57.4595V20.1655C57.4595 23.4717 59.4393 24.2924 61.7452 24.1517V26.9889Z" fill="#3DBB82"/>
<path d="M81.7992 21.1741C80.3552 25.1603 77.2574 27.4113 72.9717 27.4113C67.6379 27.4113 63.4688 23.1203 63.4688 17.6569C63.4688 12.2638 67.6379 7.83203 72.8087 7.83203C76.8381 7.83203 80.7744 10.6693 81.8458 15.5231L67.6147 21.5727C68.8025 23.4486 70.8522 24.5038 72.9717 24.5038C75.6037 24.5038 77.4437 23.3548 78.6316 21.1741H81.7992ZM66.6364 18.8996L78.0959 14.0458C76.9313 12.0058 74.8816 10.7396 72.8087 10.7396C69.8506 10.7396 66.5432 13.3424 66.5432 17.6334C66.5199 18.1024 66.5665 18.501 66.6364 18.8996Z" fill="#3DBB82"/>
<path d="M94.003 7.94823V10.8089C90.4394 10.4806 88.1568 12.2158 88.1568 15.8034V26.9648H85.1289V15.8737C85.1522 10.2227 89.1584 7.36202 94.003 7.94823Z" fill="#3DBB82"/>
<path d="M96.6348 0H99.6627V20.0483C99.6627 23.3545 101.689 24.1752 103.995 24.0814V26.989C99.6394 27.5048 96.6348 24.9255 96.6348 20.1655V0Z" fill="#3DBB82"/>
<path d="M114.825 29.4277C113.288 33.3201 110.889 34.3284 107.186 33.9297V31.0925C109.608 31.2801 111.331 30.2953 112.123 28.1146L111.797 26.8953L104.693 8.32422H108.001L113.404 23.1904L118.692 8.32422H121.976L114.825 29.4277Z" fill="#3DBB82"/>
<path d="M21.5198 27.2697C19.144 29.5676 15.9065 30.998 12.3429 30.998C8.61622 30.998 5.23893 29.4269 2.83989 26.9414C2.28089 27.7386 1.67531 28.489 0.976562 29.169C3.88802 32.1 7.91747 33.9056 12.3429 33.9056C16.6285 33.9056 20.5182 32.2173 23.4064 29.4504C22.7309 28.7704 22.1021 28.0435 21.5198 27.2697Z" fill="#3DBB82"/>
</svg>
