<?xml version="1.0" encoding="UTF-8"?>
<svg version="1.1" xmlns="http://www.w3.org/2000/svg" width="200" height="200">
<path d="M0 0 C66 0 132 0 200 0 C200 66 200 132 200 200 C134 200 68 200 0 200 C0 134 0 68 0 0 Z " fill="#FEFEFE" transform="translate(0,0)"/>
<path d="M0 0 C8.26943544 -0.84381994 15.3509127 2.21127025 23 5 C23 5.66 23 6.32 23 7 C23.680625 7.12375 24.36125 7.2475 25.0625 7.375 C28.44304723 8.09426537 31.71383613 8.9256772 35 10 C35.495 10.99 35.495 10.99 36 12 C45.45938809 14.42548413 56.4357166 13.07747838 66 12 C66.33 11.67 66.66 11.34 67 11 C75.0059344 8.65343302 82.72912004 8.80385265 91 9 C91 9.99 91 10.98 91 12 C89.9275 12.04125 88.855 12.0825 87.75 12.125 C82.56038592 12.74479348 78.39410214 15.09384067 73.83203125 17.52734375 C67.15384615 21 67.15384615 21 63 21 C63 21.66 63 22.32 63 23 C60.32156064 24.51848531 57.63415558 26.01449742 54.9375 27.5 C54.18533203 27.92925781 53.43316406 28.35851562 52.65820312 28.80078125 C47.98189545 31.35149453 44.45392113 32.93179298 39 32 C36.296875 30.12890625 36.296875 30.12890625 33.75 27.5625 C32.81542969 26.65371094 31.88085938 25.74492187 30.91796875 24.80859375 C30.44020996 24.34050293 29.96245117 23.87241211 29.47021484 23.39013672 C26.29542374 20.38826682 22.82227731 17.73147909 19.41015625 15.0078125 C17 13 17 13 14.96484375 10.87890625 C12.88668565 8.89164174 11.13829718 7.91931988 8.5 6.8125 C7.7471875 6.48894531 6.994375 6.16539062 6.21875 5.83203125 C4.158757 5.05953387 2.14433683 4.48247579 0 4 C0 2.68 0 1.36 0 0 Z " fill="#2C343B" transform="translate(62,126)"/>
<path d="M0 0 C3 0 3 0 5.33984375 2.17578125 C6.21769531 3.10777344 7.09554687 4.03976563 8 5 C15.65891259 12.41436096 21.18016057 16.22905321 32 17 C34.58541189 17.36039075 37.16881532 17.73548521 39.75 18.125 C41.83313473 18.41808173 43.9163967 18.71026818 46 19 C46 19.99 46 20.98 46 22 C38.6983865 23.51847714 31.39059935 24.98598637 24 26 C23.08476563 26.1340625 22.16953125 26.268125 21.2265625 26.40625 C17.56317082 26.71428293 15.09853361 26.91386633 12.1875 24.4921875 C9.12803992 20.5913759 6.93426061 16.19634168 4.95703125 11.6640625 C3.96661618 9.65655123 3.96661618 9.65655123 1 8 C0.29947539 5.336937 0.22255182 2.75964263 0 0 Z " fill="#2D353D" transform="translate(82,42)"/>
<path d="M0 0 C8.26943544 -0.84381994 15.3509127 2.21127025 23 5 C23 5.66 23 6.32 23 7 C25.475 7.495 25.475 7.495 28 8 C24.7169902 9.6415049 21.57454967 8.51888624 18 8 C18.61277612 10.96175123 19.25372522 12.38058783 21 15 C18.59529237 13.96941101 17.07821663 13.08690737 15.3125 11.125 C11.09103713 7.2458179 5.55182233 5.24916003 0 4 C0 2.68 0 1.36 0 0 Z " fill="#434A50" transform="translate(62,126)"/>
<path d="M0 0 C3 0 3 0 5.5 2.25 C7.48673735 4.43541108 9.30304957 6.58854412 11 9 C9.68 9 8.36 9 7 9 C7.33 10.98 7.66 12.96 8 15 C8.66 15 9.32 15 10 15 C10.33 16.98 10.66 18.96 11 21 C8.01019068 18.2904853 6.68723227 15.4751822 5.0625 11.83984375 C3.99411024 9.67603552 3.99411024 9.67603552 1 8 C0.29947539 5.336937 0.22255182 2.75964263 0 0 Z " fill="#51585E" transform="translate(82,42)"/>
<path d="M0 0 C1.62490954 -0.02698189 3.24994633 -0.04638757 4.875 -0.0625 C5.77992188 -0.07410156 6.68484375 -0.08570313 7.6171875 -0.09765625 C10 0 10 0 12 1 C12 2.65 12 4.3 12 6 C10.02 6 8.04 6 6 6 C6 6.66 6 7.32 6 8 C1.545 8.495 1.545 8.495 -3 9 C-2 7 -2 7 0.0625 5.875 C3.86725273 4.7416694 7.0368828 4.86565704 11 5 C11 4.01 11 3.02 11 2 C7.37 2 3.74 2 0 2 C0 1.34 0 0.68 0 0 Z " fill="#A8ACB1" transform="translate(142,133)"/>
<path d="M0 0 C8.57142857 -0.14285714 8.57142857 -0.14285714 12 1 C12 1.99 12 2.98 12 4 C6.61972975 5.19088986 1.54708616 6.2919519 -4 6 C-3.67 5.34 -3.34 4.68 -3 4 C-0.03 4 2.94 4 6 4 C6 3.34 6 2.68 6 2 C3.03 1.505 3.03 1.505 0 1 C0 0.67 0 0.34 0 0 Z " fill="#5A6065" transform="translate(116,60)"/>
<path d="M0 0 C6.0546875 -0.1953125 6.0546875 -0.1953125 8 0 C8.66 0.66 9.32 1.32 10 2 C9.67 3.32 9.34 4.64 9 6 C4.545 5.01 4.545 5.01 0 4 C0 2.68 0 1.36 0 0 Z " fill="#313840" transform="translate(62,126)"/>
<path d="M0 0 C1.45823212 -0.0270043 2.91660675 -0.04639787 4.375 -0.0625 C5.18710938 -0.07410156 5.99921875 -0.08570313 6.8359375 -0.09765625 C9 0 9 0 11 1 C11 1.66 11 2.32 11 3 C7.7 3.33 4.4 3.66 1 4 C0.67 2.68 0.34 1.36 0 0 Z " fill="#222A33" transform="translate(111,61)"/>
<path d="M0 0 C0 0.66 0 1.32 0 2 C0.66 2.33 1.32 2.66 2 3 C3.0625 4.9375 3.0625 4.9375 4 7 C4.33 7.66 4.66 8.32 5 9 C1.62101619 7.55186408 -0.49631932 5.67059273 -3 3 C-3.66 2.34 -4.32 1.68 -5 1 C-3 0 -3 0 0 0 Z " fill="#4B5158" transform="translate(78,132)"/>
<path d="M0 0 C0.99 0 1.98 0 3 0 C4.125 6.75 4.125 6.75 3 9 C2.34 8.67 1.68 8.34 1 8 C0.40644386 5.35139573 0.25790731 2.70802678 0 0 Z " fill="#7F8387" transform="translate(82,42)"/>
<path d="M0 0 C-1.32 0.33 -2.64 0.66 -4 1 C-4 1.66 -4 2.32 -4 3 C-8.455 3.495 -8.455 3.495 -13 4 C-12 2 -12 2 -9.875 0.875 C-6.47608911 -0.15945114 -3.53359114 -0.1385722 0 0 Z " fill="#93979B" transform="translate(152,138)"/>
<path d="M0 0 C2.475 0.99 2.475 0.99 5 2 C4.01 2.33 3.02 2.66 2 3 C2.33 4.65 2.66 6.3 3 8 C2.34 7.67 1.68 7.34 1 7 C0.59270772 4.67843403 0.25561323 2.3431213 0 0 Z " fill="#42484F" transform="translate(85,45)"/>
</svg>
