<svg width="140" height="140" viewBox="0 0 140 140" fill="none" xmlns="http://www.w3.org/2000/svg">
<rect width="140" height="140" rx="35" fill="#FF334D"></rect>
<path fill-rule="evenodd" clip-rule="evenodd" d="M116.242 53.993C104.105 39.704 87.8558 30.9688 70 30.9688C52.1441 30.9688 35.895 39.704 23.7578 53.993V69.9997L23.7584 69.9991L23.7584 86.0051C35.8955 100.294 52.1447 109.029 70.0005 109.029C87.8563 109.029 104.106 100.294 116.243 86.0051V69.9984L116.242 69.999V53.993ZM116.242 69.9994C110.15 62.8276 103.022 56.4546 95.1755 51.8853C90.6089 52.8731 87.188 56.9283 87.188 61.7807C87.188 67.3728 91.7312 71.906 97.3356 71.906C99.9595 71.906 102.351 70.9123 104.152 69.2814C104.942 68.5661 106.439 68.938 106.439 70.0024C106.439 73.8778 104.686 77.0418 103.06 80.2827C102.742 80.9167 103.029 81.1953 103.369 81.5032C103.708 81.811 104.172 81.8753 104.625 81.5032C108.806 78.0705 112.699 74.17 116.242 69.9994ZM81.1416 93.9757C68.5509 93.2701 58.558 82.8067 58.558 70.0024C58.558 57.191 68.5621 46.723 81.1627 46.0279C77.5308 45.0966 73.8018 44.5925 70 44.5925C52.1446 44.5925 35.8957 55.7102 23.7587 69.9987C35.8958 84.2875 52.1448 95.4056 70.0005 95.4056C73.7948 95.4056 77.5164 94.9035 81.1416 93.9757Z" fill="#121212"></path></svg>